name Walk9.mot
datacolumns 19
datarows 22
range 3.24300000 3.26400000
endheader

                time	   L_ground_force_vx	   L_ground_force_vy	   L_ground_force_vz	   L_ground_force_px	   L_ground_force_py	   L_ground_force_pz	   R_ground_force_vx	   R_ground_force_vy	   R_ground_force_vz	   R_ground_force_px	   R_ground_force_py	   R_ground_force_pz	   L_ground_torque_x	   L_ground_torque_y	   L_ground_torque_z	   R_ground_torque_x	   R_ground_torque_y	   R_ground_torque_z	
          3.24300000	          0.04255194	          0.10847182	         -0.00436200	         -0.00018257	          0.00000000	         -0.00006326	        -16.69973556	        748.21426733	        -52.95224394	          0.31681463	          0.00000000	          0.13590245	          0.00000000	          0.00017467	          0.00000000	          0.00000000	          6.67502253	          0.00000000	
          3.24400000	          0.03971283	          0.09978769	         -0.00433270	         -0.00017612	          0.00000000	         -0.00006118	        -16.49256454	        747.61067031	        -52.78856173	          0.31713210	          0.00000000	          0.13600004	          0.00000000	          0.00016455	          0.00000000	          0.00000000	          6.62473427	          0.00000000	
          3.24500000	          0.03696504	          0.09146484	         -0.00428953	         -0.00016955	          0.00000000	         -0.00005905	        -16.28698355	        747.01003016	        -52.62856795	          0.31744928	          0.00000000	          0.13609713	          0.00000000	          0.00015467	          0.00000000	          0.00000000	          6.57489851	          0.00000000	
          3.24600000	          0.03431120	          0.08350402	         -0.00423382	         -0.00016290	          0.00000000	         -0.00005688	        -16.08296667	        746.41241410	        -52.47237463	          0.31776619	          0.00000000	          0.13619377	          0.00000000	          0.00014504	          0.00000000	          0.00000000	          6.52553049	          0.00000000	
          3.24700000	          0.03175334	          0.07590451	         -0.00416684	         -0.00015620	          0.00000000	         -0.00005468	        -15.88048517	        745.81791663	        -52.32007880	          0.31808285	          0.00000000	          0.13629003	          0.00000000	          0.00013569	          0.00000000	          0.00000000	          6.47664468	          0.00000000	
          3.24800000	          0.02929298	          0.06866432	         -0.00408982	         -0.00014948	          0.00000000	         -0.00005245	        -15.67950807	        745.22665454	        -52.17176292	          0.31839929	          0.00000000	          0.13638594	          0.00000000	          0.00012661	          0.00000000	          0.00000000	          6.42825432	          0.00000000	
          3.24900000	          0.02693112	          0.06178026	         -0.00400389	         -0.00014277	          0.00000000	         -0.00005022	        -15.48000267	        744.63876385	        -52.02749533	          0.31871552	          0.00000000	          0.13648156	          0.00000000	          0.00011783	          0.00000000	          0.00000000	          6.38037100	          0.00000000	
          3.25000000	          0.02466830	          0.05524805	         -0.00391013	         -0.00013609	          0.00000000	         -0.00004799	        -15.28193499	        744.05439775	        -51.88733046	          0.31903154	          0.00000000	          0.13657693	          0.00000000	          0.00010935	          0.00000000	          0.00000000	          6.33300421	          0.00000000	
          3.25100000	          0.02250466	          0.04906247	         -0.00380958	         -0.00012946	          0.00000000	         -0.00004577	        -15.08526984	        743.47372465	        -51.75130915	          0.31934737	          0.00000000	          0.13667209	          0.00000000	          0.00010118	          0.00000000	          0.00000000	          6.28616131	          0.00000000	
          3.25200000	          0.02043995	          0.04321741	         -0.00370317	         -0.00012290	          0.00000000	         -0.00004356	        -14.88997057	        742.89692544	        -51.61945891	          0.31966301	          0.00000000	          0.13676706	          0.00000000	          0.00009332	          0.00000000	          0.00000000	          6.23984764	          0.00000000	
          3.25300000	          0.01847355	          0.03770602	         -0.00359182	         -0.00011644	          0.00000000	         -0.00004138	        -14.69599861	        742.32419018	        -51.49179444	          0.31997847	          0.00000000	          0.13686188	          0.00000000	          0.00008578	          0.00000000	          0.00000000	          6.19406684	          0.00000000	
          3.25400000	          0.01660453	          0.03252075	         -0.00347636	         -0.00011009	          0.00000000	         -0.00003922	        -14.50331297	        741.75571477	        -51.36831834	          0.32029374	          0.00000000	          0.13695656	          0.00000000	          0.00007855	          0.00000000	          0.00000000	          6.14882126	          0.00000000	
          3.25500000	          0.01483168	          0.02765347	         -0.00335759	         -0.00010386	          0.00000000	         -0.00003710	        -14.31186976	        741.19169864	        -51.24902212	          0.32060882	          0.00000000	          0.13705113	          0.00000000	          0.00007164	          0.00000000	          0.00000000	          6.10411203	          0.00000000	
          3.25600000	          0.01315351	          0.02309552	         -0.00323623	         -0.00009777	          0.00000000	         -0.00003502	        -14.12162202	        740.63234426	        -51.13388716	          0.32092372	          0.00000000	          0.13714558	          0.00000000	          0.00006505	          0.00000000	          0.00000000	          6.05993905	          0.00000000	
          3.25700000	          0.01156833	          0.01883784	         -0.00311295	         -0.00009183	          0.00000000	         -0.00003299	        -13.93251984	        740.07785806	        -51.02288566	          0.32123843	          0.00000000	          0.13723994	          0.00000000	          0.00005877	          0.00000000	          0.00000000	          6.01630061	          0.00000000	
          3.25800000	          0.01007422	          0.01487098	         -0.00298839	         -0.00008605	          0.00000000	         -0.00003100	        -13.74451068	        739.52845224	        -50.91598127	          0.32155293	          0.00000000	          0.13733420	          0.00000000	          0.00005281	          0.00000000	          0.00000000	          5.97319315	          0.00000000	
          3.25900000	          0.00866907	          0.01118520	         -0.00286314	         -0.00008043	          0.00000000	         -0.00002906	        -13.55753963	        738.98434649	        -50.81312957	          0.32186722	          0.00000000	          0.13742837	          0.00000000	          0.00004715	          0.00000000	          0.00000000	          5.93061105	          0.00000000	
          3.26000000	          0.00735063	          0.00777054	         -0.00273771	         -0.00007499	          0.00000000	         -0.00002718	        -13.37154954	        738.44576899	        -50.71427846	          0.32218128	          0.00000000	          0.13752244	          0.00000000	          0.00004179	          0.00000000	          0.00000000	          5.88854672	          0.00000000	
          3.26100000	          0.00611652	          0.00461684	         -0.00261260	         -0.00006972	          0.00000000	         -0.00002536	        -13.18648079	        737.91295631	        -50.61936857	          0.32249510	          0.00000000	          0.13761644	          0.00000000	          0.00003674	          0.00000000	          0.00000000	          5.84699091	          0.00000000	
          3.26200000	          0.00496422	          0.00171384	         -0.00248826	         -0.00006464	          0.00000000	         -0.00002360	        -13.00227089	        737.38615187	        -50.52833387	          0.32280866	          0.00000000	          0.13771034	          0.00000000	          0.00003197	          0.00000000	          0.00000000	          5.80593299	          0.00000000	
          3.26300000	          0.00389114	         -0.00094881	         -0.00236508	         -0.00005975	          0.00000000	         -0.00002189	        -12.81885405	        736.86560322	        -50.44110235	          0.32312193	          0.00000000	          0.13780416	          0.00000000	          0.00002749	          0.00000000	          0.00000000	          5.76536123	          0.00000000	
          3.26400000	          0.00289459	         -0.00338149	         -0.00224345	         -0.00005505	          0.00000000	         -0.00002025	        -12.63616085	        736.35155888	        -50.35759671	          0.32343489	          0.00000000	          0.13789790	          0.00000000	          0.00002328	          0.00000000	          0.00000000	          5.72526291	          0.00000000	
